<?xml version="1.0" encoding="UTF-8"?>
<svg width="23px" height="22px" viewBox="0 0 23 22" version="1.1" xmlns="http://www.w3.org/2000/svg" xmlns:xlink="http://www.w3.org/1999/xlink">
    <!-- Generator: Sketch 60.1 (88133) - https://sketch.com -->
    <title>刷新@2x</title>
    <desc>Created with Sketch.</desc>
    <g id="新版" stroke="none" stroke-width="1" fill="none" fill-rule="evenodd">
        <g id="在线考勤-自动打卡" transform="translate(-342.000000, -29.000000)" fill="#FFFFFF">
            <g id="Status-Bar">
                <g id="刷新" transform="translate(342.364483, 29.000000)">
                    <path d="M22,10.9931964 C22,17.0627982 17.0796177,21.9832108 11.0100159,21.9832108 C8.04817386,21.9804834 5.21409695,20.776806 3.15573265,18.6471951 L3.15573265,20.4144512 C3.15573265,20.9342396 2.73440467,21.3555676 2.21461631,21.3555676 C1.69494918,21.3555676 1.2736212,20.9342396 1.2736212,20.4144512 L1.2736212,16.0172818 C1.2736212,15.4959479 1.69410064,15.077014 2.21543454,15.077014 L6.61272523,15.077014 C7.13287724,15.077014 7.55453857,15.4986753 7.55453857,16.0188273 C7.55453857,16.5389793 7.13287724,16.9606407 6.61272523,16.9606407 L4.16430752,16.9606407 C5.88198499,18.9517586 8.38034504,20.0979173 11.0100159,20.1010994 C13.4255226,20.1002811 15.7418112,19.1398909 17.4493063,17.431214 C19.1568013,15.7225371 20.115646,13.4056423 20.1148278,10.9900144 L20.1132822,10.907858 C20.1070091,10.8301868 20.1784073,10.6782081 20.1784073,10.6782081 C20.3102636,10.3151259 20.6485866,10.0512618 21.0566411,10.0512618 C21.4646956,10.0512618 21.804443,10.3151259 21.9364205,10.6782081 C21.9364205,10.6782081 21.9984545,10.8860688 21.9984545,10.9900144 L21.9984545,10.9931964 L22,10.9931964 Z M19.7998091,6.90774237 L15.4040943,6.90774237 C14.8847605,6.90774237 14.4637962,6.48677805 14.4637962,5.96744426 C14.4637962,5.44826201 14.8847605,5.02717647 15.4040943,5.02717647 L17.8572395,5.02717647 C16.1406227,3.03357357 13.6408384,1.88647534 11.0100159,1.88517223 C6.27497795,1.886839 2.33228995,5.51869042 1.94235777,10.237485 C1.93620589,10.3088528 1.83841222,10.6782081 1.83841222,10.6782081 C1.70737416,11.0529878 1.35414112,11.3041845 0.957087304,11.3050027 C0.561457817,11.3032451 0.210133983,11.0519272 0.0804899429,10.6782081 C-0.0492450119,10.3043677 0.0168195061,10.4144652 0.0168195061,10.3662805 C0.0168195061,10.24991 0.0990971053,9.86979655 0.108309772,9.78291262 C0.711921272,4.28552649 5.34974135,5.68434189e-14 11.0100159,5.68434189e-14 C14.0898649,5.68434189e-14 16.8672415,1.27389361 18.8610869,3.31886319 L18.8610869,1.57018389 C18.8897249,1.07109373 19.3028706,0.680919108 19.8029002,0.680919108 C20.3029298,0.680919108 20.7160755,1.07109373 20.7447135,1.57018389 L20.7447135,5.96898981 C20.7438953,6.21876218 20.6438591,6.45801877 20.4666365,6.63415041 C20.2894442,6.81019114 20.0496118,6.9085606 19.7998091,6.90774237 Z" id="Fill-1"></path>
                </g>
            </g>
        </g>
    </g>
</svg>