<?xml version="1.0" encoding="UTF-8"?>
<svg width="83px" height="83px" viewBox="0 0 83 83" version="1.1" xmlns="http://www.w3.org/2000/svg" xmlns:xlink="http://www.w3.org/1999/xlink">
    <!-- Generator: Sketch 60.1 (88133) - https://sketch.com -->
    <title>touxiang</title>
    <desc>Created with Sketch.</desc>
    <g id="新版" stroke="none" stroke-width="1" fill="none" fill-rule="evenodd">
        <g id="在线考勤-登陆" transform="translate(-146.000000, -88.000000)">
            <g id="touxiang" transform="translate(146.500000, 88.581087)">
                <g transform="translate(0.000000, -0.000000)">
                    <circle id="椭圆形" fill="#FFFFFF" cx="41" cy="41" r="41"></circle>
                    <path d="M41.000462,82 C54.1642982,82 65.8888794,75.8702888 73.5,66.3175252 C71.8376154,64.5359534 69.1330355,63.9656564 66.7753921,62.8622506 C63.3625029,61.2683525 59.5716101,59.4122887 56.1577969,57.8640097 C55.1910176,57.5698528 54.2125736,57.275696 53.2399043,56.9820011 C52.0781753,56.0991841 50.9462432,53.152765 50.3214342,51.6884484 C49.7025152,51.5909735 49.0834808,51.4925748 48.4645619,51.3947535 C48.5584565,49.1273089 49.8260911,49.0095076 50.3214342,47.2785211 C50.757761,45.7487207 50.3687857,43.768619 51.0645064,42.3507299 C51.5418328,41.3704381 52.63265,41.364548 53.1748826,40.5281586 C53.6702256,39.7625655 53.9941792,38.430833 54.1475519,37.4955829 C54.4303906,35.7844609 54.6781199,33.4510707 53.9413996,31.7529992 C53.5227429,30.7785975 53.257459,30.6874747 53.1397731,29.5046108 C52.9980651,28.0740176 53.5227429,23.4020401 53.5402976,22.3882558 C53.5935392,19.7685621 53.5402976,19.5529395 52.9682683,17.0043887 C52.9682683,17.0043887 52.272663,14.6914405 51.1821923,13.9921395 L49.0126845,13.5802968 L47.6683635,12.2020213 C42.2623221,8.5171496 36.4669588,11.0976916 33.3604685,12.4961781 C28.886097,14.1035888 26.0556314,18.9582738 28.0306514,29.3354157 C28.3668472,31.1061314 27.1582287,31.8960932 27.234915,32.8633345 C27.4058424,34.9805246 27.4469574,40.0579927 29.24516,41.3122304 C29.4160874,41.4299162 30.6956177,41.7822808 30.6838376,41.6848059 C30.8606551,43.7429799 31.037588,45.8078524 31.2144055,47.8659108 C31.6678251,49.2314823 32.7468622,49.3817367 33.0594977,51.3162193 L31.6804137,51.6879864 C31.0551427,53.152765 29.9173205,56.0991841 28.756169,56.9816546 C27.7830377,57.2753495 26.8103683,57.5693908 25.8376989,57.8635477 C22.4302378,59.4119422 18.6393449,61.2678905 15.2259938,62.8622506 C12.8688123,63.9656564 10.1651564,64.5350295 8.5,66.3161393 C16.1106586,75.8694804 27.8362793,82 41.000462,82 Z" id="Fill-1" fill="#F4F4F4"></path>
                </g>
            </g>
        </g>
    </g>
</svg>