<?xml version="1.0" encoding="UTF-8"?>
<svg width="8px" height="8px" viewBox="0 0 8 8" version="1.1" xmlns="http://www.w3.org/2000/svg" xmlns:xlink="http://www.w3.org/1999/xlink">
    <!-- Generator: Sketch 61.1 (89650) - https://sketch.com -->
    <title>删除</title>
    <desc>Created with Sketch.</desc>
    <g id="出差招待" stroke="none" stroke-width="1" fill="none" fill-rule="evenodd">
        <g id="出差计划-二版-删除" transform="translate(-247.000000, -685.000000)" fill="#FFFFFF">
            <g id="编组-5" transform="translate(240.000000, 677.000000)">
                <g id="编组-2" transform="translate(7.000000, 6.500000)">
                    <g id="删除" transform="translate(0.000000, 1.500000)">
                        <path d="M6.4,6.85572963 C6.4,7.14319608 6.1659937,7.37718488 5.87852725,7.37718488 L2.12147275,7.37718488 C1.8340063,7.37718488 1.6,7.14319608 1.6,6.85572963 L1.6,1.32046881 L6.4,1.32046881 L6.4,6.85572963 Z M2.62180755,0.445485176 C2.62180755,0.389236813 2.66558537,0.345442626 2.72178464,0.345442626 L5.3224534,0.345442626 C5.37870176,0.345442626 5.42243049,0.389236813 5.42243049,0.445485176 L5.42243049,0.888255508 L2.62180755,0.888255508 L2.62180755,0.445485176 Z M7.70625491,1.05266404 L5.85624509,1.05266404 L5.85624509,0.681281095 C5.85624509,0.306215632 5.55002946,-1.55875313e-13 5.17502946,-1.55875313e-13 L2.83123854,-1.55875313e-13 C2.45623854,-1.55875313e-13 2.15002291,0.306215632 2.15002291,0.681281095 L2.15002291,1.05266404 L0.29374509,1.05266404 C0.131251637,1.05266404 0,1.18396478 0,1.3464746 C0,1.50896805 0.131251637,1.56246727 0.29374509,1.56246727 L1.16872872,1.56246727 L1.16872872,6.73122872 C1.16872872,7.32498691 1.65003928,7.80624836 2.24374836,7.80624836 L5.75625164,7.80624836 C6.35002618,7.80624836 6.83127128,7.32498691 6.83127128,6.73122872 L6.83127128,1.55626473 L7.70625491,1.55626473 C7.86874836,1.55626473 8,1.50271641 8,1.34020659 C8,1.17763131 7.86874836,1.05266404 7.70625491,1.05266404 Z M5.04689873,6.10171063 C5.20940855,6.10171063 5.34064382,5.97045899 5.34064382,5.80794917 L5.34064382,2.68296554 C5.34064382,2.52045572 5.20940855,2.38922045 5.04689873,2.38922045 C4.88438891,2.38922045 4.75315364,2.52045572 4.75315364,2.68296554 L4.75315364,5.80794917 C4.75315364,5.97045899 4.88438891,6.10171063 5.04689873,6.10171063 L5.04689873,6.10171063 Z M3.35343875,6.10171063 C3.51594857,6.10171063 3.64718384,5.97045899 3.64718384,5.80794917 L3.64718384,2.68296554 C3.64718384,2.52045572 3.51594857,2.38922045 3.35343875,2.38922045 C3.1909453,2.38922045 3.05969366,2.52045572 3.05969366,2.68296554 L3.05969366,5.80794917 C3.0658962,5.97045899 3.19719693,6.10171063 3.35343875,6.10171063 L3.35343875,6.10171063 Z" id="Fill-1"></path>
                    </g>
                </g>
            </g>
        </g>
    </g>
</svg>