<?xml version="1.0" encoding="UTF-8"?>
<svg width="16px" height="17px" viewBox="0 0 16 17" version="1.1" xmlns="http://www.w3.org/2000/svg" xmlns:xlink="http://www.w3.org/1999/xlink">
    <!-- Generator: Sketch 60.1 (88133) - https://sketch.com -->
    <title>Fill 1</title>
    <desc>Created with Sketch.</desc>
    <g id="一版" stroke="none" stroke-width="1" fill="none" fill-rule="evenodd">
        <g id="工作计划-下看一层" transform="translate(-342.000000, -85.000000)" fill="#4B77AF">
            <g id="标题" transform="translate(0.000000, 64.000000)">
                <path d="M350.905724,21.8328174 C350.416565,21.3890609 349.670431,21.3890609 349.181272,21.8328174 L342.208031,28.4541516 C341.948186,28.6929314 341.929209,29.0964801 342.165498,29.3585305 C342.401787,29.6206521 342.805122,29.6434484 343.069498,29.4096739 L343.180419,29.3043271 L343.180419,36.2151338 C343.179944,36.5565798 343.315323,36.8842437 343.556617,37.1258937 C343.797911,37.3674726 344.12548,37.5033014 344.466926,37.5033014 L348.210924,37.5033014 L348.210924,33.6299505 C348.210639,33.3894865 348.306,33.1586772 348.47594,32.9885472 C348.645975,32.8183223 348.876713,32.7227962 349.117153,32.7228911 L350.878943,32.7228911 C351.119478,32.7227962 351.350121,32.8183223 351.520156,32.9885472 C351.690191,33.1586772 351.785551,33.3894865 351.785172,33.6299505 L351.785172,37.5033014 L355.61803,37.5033014 C355.959571,37.5033014 356.287235,37.3676386 356.528624,37.1259886 C356.770013,36.8844097 356.905462,36.5566747 356.905012,36.2151338 L356.905012,29.3888228 C357.190878,29.6474336 357.596349,29.6277923 357.834132,29.3627766 C357.948469,29.236128 358.007868,29.0692242 357.999162,28.8988333 C357.990456,28.7284186 357.914382,28.5684889 357.787709,28.4541516 L350.905724,21.8331732 L350.905724,21.8328174 Z" id="Fill-1"></path>
            </g>
        </g>
    </g>
</svg>