<?xml version="1.0" encoding="UTF-8"?>
<svg width="18px" height="18px" viewBox="0 0 18 18" version="1.1" xmlns="http://www.w3.org/2000/svg" xmlns:xlink="http://www.w3.org/1999/xlink">
    <!-- Generator: Sketch 60.1 (88133) - https://sketch.com -->
    <title>形状结合</title>
    <desc>Created with Sketch.</desc>
    <g id="会议管理" stroke="none" stroke-width="1" fill="none" fill-rule="evenodd">
        <g id="会议管理-签到" transform="translate(-340.000000, -136.000000)" fill="#4B77AF">
            <path d="M349,136 C353.970563,136 358,140.029437 358,145 C358,149.970563 353.970563,154 349,154 C344.029437,154 340,149.970563 340,145 C340,140.029437 344.029437,136 349,136 Z M354.088008,140.51295 C353.804714,140.229655 353.345403,140.229655 353.062109,140.51295 L353.062109,140.51295 L349.3,144.274 L345.538849,140.51295 C345.255554,140.229655 344.796244,140.229655 344.51295,140.51295 C344.229655,140.796244 344.229655,141.255554 344.51295,141.538849 L344.51295,141.538849 L348.274,145.3 L344.51295,149.062109 L344.43646,149.152026 C344.232488,149.435505 344.257985,149.833043 344.51295,150.088008 L344.51295,150.088008 L344.602866,150.164498 C344.886346,150.36847 345.283884,150.342973 345.538849,150.088008 L345.538849,150.088008 L349.3,146.326 L353.062109,150.088008 C353.345403,150.371302 353.804714,150.371302 354.088008,150.088008 C354.371302,149.804714 354.371302,149.345403 354.088008,149.062109 L354.088008,149.062109 L350.326,145.3 L354.088008,141.538849 L354.164498,141.448932 C354.36847,141.165453 354.342973,140.767914 354.088008,140.51295 Z" id="形状结合"></path>
        </g>
    </g>
</svg>